<?xml version="1.0" encoding="UTF-8"?>
<svg xmlns="http://www.w3.org/2000/svg" xmlns:xlink="http://www.w3.org/1999/xlink" width="533.46pt" height="164.91pt" viewBox="0 0 533.46 164.91" version="1.1">
<defs>
<clipPath id="clip1">
  <path d="M 469 72 L 533.460938 72 L 533.460938 152 L 469 152 Z M 469 72 "/>
</clipPath>
<clipPath id="clip2">
  <path d="M 80 133 L 113 133 L 113 164.910156 L 80 164.910156 Z M 80 133 "/>
</clipPath>
<clipPath id="clip3">
  <path d="M 25 133 L 58 133 L 58 164.910156 L 25 164.910156 Z M 25 133 "/>
</clipPath>
</defs>
<g id="surface1">
<path style=" stroke:none;fill-rule:evenodd;fill:rgb(0.799561%,1.199341%,1.199341%);fill-opacity:1;" d="M 329.046875 96.214844 C 329.046875 102.410156 329.082031 108.609375 329.027344 114.808594 C 329.007813 117.339844 328.480469 119.808594 327.460938 122.144531 C 325.320313 127.058594 321.535156 129.640625 316.199219 129.976563 C 315.824219 130 315.449219 129.996094 315.074219 129.996094 C 306.320313 129.996094 297.570313 130.027344 288.816406 129.976563 C 287.136719 129.964844 285.421875 129.824219 283.789063 129.457031 C 278.246094 128.214844 274.925781 124.632813 273.632813 119.1875 C 273.203125 117.375 272.953125 115.480469 272.945313 113.617188 C 272.886719 101.859375 272.90625 90.101563 272.9375 78.34375 C 272.9375 77.382813 273.09375 76.390625 273.378906 75.472656 C 273.980469 73.511719 275.28125 72.613281 277.328125 72.597656 C 279.730469 72.582031 282.136719 72.59375 284.539063 72.59375 C 286.90625 72.59375 289.273438 72.550781 291.640625 72.617188 C 292.523438 72.640625 293.449219 72.789063 294.273438 73.097656 C 296.214844 73.824219 297.199219 75.375 297.203125 77.457031 C 297.203125 86.324219 297.195313 95.191406 297.214844 104.054688 C 297.21875 105.023438 297.273438 106.015625 297.484375 106.957031 C 297.914063 108.890625 299.15625 109.910156 301.007813 110.023438 C 303.140625 110.152344 304.71875 109.25 305.347656 107.367188 C 305.636719 106.496094 305.769531 105.53125 305.769531 104.609375 C 305.800781 95.78125 305.78125 86.953125 305.796875 78.125 C 305.800781 77.15625 305.859375 76.171875 306.015625 75.214844 C 306.253906 73.75 307.175781 72.898438 308.65625 72.703125 C 309.140625 72.636719 309.628906 72.601563 310.113281 72.597656 C 314.585938 72.589844 319.054688 72.585938 323.523438 72.601563 C 324.199219 72.605469 324.878906 72.660156 325.539063 72.773438 C 327.550781 73.117188 328.800781 74.460938 329.027344 76.496094 C 329.089844 77.015625 329.089844 77.542969 329.089844 78.070313 C 329.09375 84.117188 329.09375 90.167969 329.09375 96.214844 C 329.078125 96.214844 329.0625 96.214844 329.046875 96.214844 "/>
<path style=" stroke:none;fill-rule:evenodd;fill:rgb(0.799561%,1.199341%,1.199341%);fill-opacity:1;" d="M 186.8125 52.003906 C 196.390625 52.003906 205.96875 51.996094 215.546875 52.011719 C 216.441406 52.015625 217.351563 52.066406 218.226563 52.246094 C 219.621094 52.53125 220.195313 53.261719 220.246094 54.691406 C 220.289063 55.96875 220.261719 57.246094 220.261719 58.523438 C 220.261719 61.714844 220.265625 64.90625 220.257813 68.101563 C 220.253906 70.160156 219.746094 70.746094 217.691406 70.792969 C 214.910156 70.855469 212.132813 70.820313 209.351563 70.824219 C 206.984375 70.828125 204.617188 70.824219 202.253906 70.824219 C 202.066406 70.824219 201.878906 70.824219 201.6875 70.828125 C 199.738281 70.878906 199.34375 71.285156 199.339844 73.253906 C 199.339844 90.609375 199.339844 107.960938 199.335938 125.3125 C 199.335938 125.949219 199.296875 126.589844 199.222656 127.222656 C 199.097656 128.34375 198.476563 129.113281 197.398438 129.417969 C 196.648438 129.628906 195.859375 129.789063 195.082031 129.804688 C 192.191406 129.859375 189.300781 129.847656 186.40625 129.847656 C 183.25 129.847656 180.097656 129.847656 176.941406 129.808594 C 176.234375 129.800781 175.515625 129.691406 174.832031 129.515625 C 173.96875 129.292969 173.394531 128.695313 173.257813 127.789063 C 173.164063 127.160156 173.109375 126.519531 173.109375 125.886719 C 173.101563 108.570313 173.105469 91.253906 173.101563 73.9375 C 173.101563 73.414063 173.109375 72.886719 173.058594 72.363281 C 172.96875 71.464844 172.625 71.085938 171.75 70.933594 C 171.269531 70.855469 170.777344 70.832031 170.292969 70.832031 C 165.820313 70.824219 161.351563 70.832031 156.882813 70.820313 C 156.246094 70.820313 155.601563 70.808594 154.976563 70.703125 C 153.941406 70.53125 153.488281 70.007813 153.375 68.964844 C 153.328125 68.519531 153.3125 68.066406 153.3125 67.617188 C 153.308594 63.597656 153.304688 59.578125 153.3125 55.558594 C 153.316406 52.96875 154.109375 52.152344 156.726563 52.027344 C 157.25 52.003906 157.777344 52.003906 158.304688 52.003906 C 167.804688 52.003906 177.308594 52.003906 186.8125 52.003906 "/>
<g clip-path="url(#clip1)" clip-rule="nonzero">
<path style=" stroke:none;fill-rule:evenodd;fill:rgb(0.799561%,1.199341%,1.199341%);fill-opacity:1;" d="M 503 98.15625 C 504.21875 95.128906 505.4375 92.105469 506.65625 89.078125 C 508.253906 85.105469 509.84375 81.136719 511.433594 77.167969 C 512.003906 75.746094 512.816406 74.503906 514.046875 73.5625 C 514.878906 72.925781 515.808594 72.589844 516.863281 72.59375 C 521.183594 72.597656 525.503906 72.578125 529.820313 72.609375 C 530.601563 72.617188 531.402344 72.730469 532.148438 72.941406 C 533.253906 73.257813 533.644531 73.996094 533.390625 75.105469 C 533.269531 75.613281 533.078125 76.109375 532.871094 76.589844 C 522.976563 99.867188 513.070313 123.140625 503.175781 146.417969 C 502.652344 147.644531 501.996094 148.761719 501.027344 149.691406 C 500.007813 150.671875 498.824219 151.183594 497.382813 151.171875 C 493.625 151.140625 489.867188 151.167969 486.109375 151.152344 C 485.4375 151.148438 484.757813 151.089844 484.09375 150.984375 C 482.398438 150.722656 481.835938 149.828125 482.324219 148.207031 C 482.464844 147.742188 482.664063 147.292969 482.851563 146.84375 C 485.300781 141.035156 487.738281 135.21875 490.210938 129.421875 C 490.496094 128.742188 490.492188 128.179688 490.21875 127.503906 C 483.414063 110.703125 476.625 93.898438 469.835938 77.09375 C 469.640625 76.605469 469.429688 76.117188 469.300781 75.613281 C 468.921875 74.085938 469.523438 73.105469 471.058594 72.792969 C 471.714844 72.660156 472.398438 72.605469 473.070313 72.601563 C 478.589844 72.589844 484.113281 72.613281 489.636719 72.582031 C 491.164063 72.574219 492.402344 73.128906 493.46875 74.175781 C 494.371094 75.0625 494.960938 76.136719 495.375 77.324219 C 497.6875 83.910156 500.019531 90.488281 502.34375 97.070313 C 502.476563 97.445313 502.628906 97.816406 502.769531 98.191406 C 502.847656 98.179688 502.925781 98.167969 503 98.15625 "/>
</g>
<path style=" stroke:none;fill-rule:evenodd;fill:rgb(0.799561%,1.199341%,1.199341%);fill-opacity:1;" d="M 362.859375 131.410156 C 354.800781 131.203125 348.125 130.566406 341.574219 128.910156 C 340.847656 128.726563 340.144531 128.453125 339.421875 128.265625 C 338.714844 128.078125 338.378906 127.640625 338.234375 126.9375 C 337.757813 124.566406 337.609375 122.171875 337.652344 119.769531 C 337.679688 118.386719 337.886719 117.003906 338.027344 115.625 C 338.058594 115.328125 338.148438 115.035156 338.234375 114.75 C 338.734375 113.058594 339.128906 112.820313 340.839844 113.277344 C 346.183594 114.714844 351.632813 115.09375 357.136719 114.882813 C 358.105469 114.847656 359.074219 114.660156 360.019531 114.433594 C 360.550781 114.308594 361.089844 114.039063 361.519531 113.699219 C 362.488281 112.945313 362.550781 111.679688 361.628906 110.875 C 361.015625 110.34375 360.292969 109.898438 359.558594 109.539063 C 358.214844 108.875 356.8125 108.335938 355.457031 107.691406 C 353.152344 106.597656 350.828125 105.542969 348.59375 104.324219 C 346.234375 103.046875 344.121094 101.386719 342.492188 99.234375 C 338.65625 94.164063 337.828125 88.597656 340.0625 82.65625 C 341.105469 79.867188 343.144531 77.800781 345.558594 76.105469 C 348.808594 73.824219 352.46875 72.53125 356.300781 71.65625 C 360.875 70.609375 365.515625 70.414063 370.183594 70.511719 C 373.675781 70.582031 377.164063 70.730469 380.601563 71.425781 C 381.40625 71.585938 382.1875 71.875 382.988281 72.066406 C 383.804688 72.261719 384.230469 72.792969 384.25 73.582031 C 384.285156 74.964844 384.335938 76.359375 384.214844 77.734375 C 384.039063 79.71875 383.59375 81.660156 382.898438 83.535156 C 382.792969 83.816406 382.679688 84.09375 382.550781 84.363281 C 381.667969 86.253906 381.1875 86.488281 379.136719 86.230469 C 376.007813 85.84375 372.878906 85.472656 369.742188 85.152344 C 368.777344 85.054688 367.789063 85.117188 366.820313 85.179688 C 366.226563 85.21875 365.628906 85.351563 365.058594 85.519531 C 364.253906 85.757813 363.664063 86.25 363.519531 87.136719 C 363.382813 87.996094 363.945313 88.472656 364.554688 88.855469 C 365.535156 89.46875 366.546875 90.054688 367.582031 90.578125 C 369.894531 91.742188 372.257813 92.800781 374.546875 94.007813 C 377.3125 95.46875 379.863281 97.253906 382.070313 99.496094 C 386.046875 103.527344 387.882813 108.363281 387.457031 114.003906 C 387.335938 115.640625 387.105469 117.300781 386.65625 118.875 C 385.488281 122.980469 382.890625 125.984375 379.15625 128.027344 C 376.214844 129.632813 373.03125 130.5 369.734375 130.882813 C 367.019531 131.199219 364.273438 131.304688 362.859375 131.410156 "/>
<path style=" stroke:none;fill-rule:evenodd;fill:rgb(0.799561%,1.199341%,1.199341%);fill-opacity:1;" d="M 398.714844 88.148438 C 397.785156 88.148438 396.96875 88.152344 396.148438 88.148438 C 395.585938 88.140625 395.015625 88.15625 394.460938 88.089844 C 393.480469 87.976563 392.773438 87.4375 392.460938 86.503906 C 392.269531 85.941406 392.140625 85.332031 392.132813 84.742188 C 392.101563 81.890625 392.113281 79.035156 392.117188 76.179688 C 392.117188 76.03125 392.128906 75.878906 392.144531 75.730469 C 392.324219 73.847656 393.296875 72.875 395.1875 72.773438 C 396.3125 72.714844 397.441406 72.75 398.570313 72.742188 C 398.976563 72.738281 399.386719 72.742188 399.902344 72.742188 C 399.925781 72.296875 399.964844 71.933594 399.964844 71.570313 C 399.96875 69.578125 400 67.589844 399.953125 65.597656 C 399.917969 63.863281 400.699219 62.628906 402.175781 61.855469 C 403 61.425781 403.894531 61.050781 404.800781 60.890625 C 409.234375 60.117188 413.683594 59.410156 418.132813 58.714844 C 418.714844 58.625 419.328125 58.671875 419.917969 58.742188 C 420.820313 58.847656 421.324219 59.4375 421.4375 60.308594 C 421.539063 61.085938 421.59375 61.878906 421.597656 62.664063 C 421.617188 65.707031 421.605469 68.75 421.605469 71.789063 C 421.605469 72.050781 421.640625 72.308594 421.664063 72.671875 C 422.007813 72.695313 422.328125 72.738281 422.652344 72.738281 C 424.492188 72.746094 426.335938 72.730469 428.175781 72.746094 C 429.765625 72.757813 430.730469 73.394531 431.210938 74.917969 C 431.476563 75.761719 431.617188 76.675781 431.636719 77.566406 C 431.691406 80.117188 431.65625 82.671875 431.65625 85.226563 C 431.65625 85.453125 431.640625 85.675781 431.628906 85.902344 C 431.507813 87.78125 430.835938 88.453125 428.953125 88.488281 C 427.074219 88.519531 425.195313 88.492188 423.320313 88.496094 C 423.027344 88.496094 422.738281 88.535156 422.382813 88.5625 C 422.363281 88.988281 422.332031 89.351563 422.332031 89.71875 C 422.328125 96.816406 422.328125 103.914063 422.332031 111.015625 C 422.332031 113.152344 423.054688 114.019531 425.175781 114.316406 C 425.875 114.414063 426.59375 114.398438 427.304688 114.378906 C 428.117188 114.359375 428.304688 114.378906 428.5625 115.15625 C 428.910156 116.222656 429.203125 117.3125 429.421875 118.414063 C 429.980469 121.292969 430.300781 124.199219 430.304688 127.140625 C 430.304688 127.515625 430.261719 127.890625 430.273438 128.265625 C 430.300781 129.019531 429.980469 129.457031 429.226563 129.613281 C 427.28125 130.019531 425.355469 130.550781 423.394531 130.839844 C 420.050781 131.339844 416.679688 131.589844 413.292969 131.152344 C 409.480469 130.660156 405.988281 129.445313 403.183594 126.691406 C 400.640625 124.191406 399.269531 121.109375 398.921875 117.601563 C 398.730469 115.664063 398.730469 113.699219 398.726563 111.75 C 398.71875 104.164063 398.742188 96.578125 398.753906 88.992188 C 398.753906 88.773438 398.730469 88.550781 398.714844 88.148438 "/>
<path style=" stroke:none;fill-rule:evenodd;fill:rgb(0.799561%,1.199341%,1.199341%);fill-opacity:1;" d="M 440.15625 90.5 C 440.15625 78.628906 440.15625 66.757813 440.160156 54.886719 C 440.160156 54.4375 440.144531 53.984375 440.183594 53.535156 C 440.316406 52.035156 441.269531 51.054688 442.765625 50.871094 C 443.175781 50.824219 443.589844 50.816406 444.003906 50.816406 C 448.773438 50.8125 453.546875 50.800781 458.316406 50.824219 C 459.289063 50.828125 460.273438 50.882813 461.222656 51.074219 C 462.777344 51.390625 463.3125 52.066406 463.449219 53.613281 C 463.488281 54.027344 463.488281 54.441406 463.488281 54.851563 C 463.488281 78.371094 463.488281 101.886719 463.484375 125.40625 C 463.484375 126.003906 463.464844 126.609375 463.398438 127.203125 C 463.226563 128.757813 462.441406 129.5625 460.894531 129.777344 C 460.410156 129.84375 459.917969 129.847656 459.429688 129.847656 C 454.320313 129.851563 449.210938 129.855469 444.101563 129.84375 C 443.355469 129.84375 442.597656 129.796875 441.859375 129.6875 C 440.992188 129.558594 440.441406 129.027344 440.316406 128.132813 C 440.25 127.648438 440.183594 127.160156 440.183594 126.679688 C 440.167969 119.578125 440.160156 112.476563 440.15625 105.378906 C 440.15625 100.417969 440.15625 95.460938 440.15625 90.5 "/>
<path style=" stroke:none;fill-rule:evenodd;fill:rgb(0.799561%,1.199341%,1.199341%);fill-opacity:1;" d="M 224.050781 104.105469 C 224.050781 97.984375 224.027344 91.863281 224.0625 85.742188 C 224.074219 84.359375 224.183594 82.960938 224.421875 81.597656 C 225.03125 78.167969 227 75.757813 230.175781 74.324219 C 232.257813 73.386719 234.453125 72.902344 236.714844 72.785156 C 239.335938 72.644531 241.964844 72.59375 244.59375 72.578125 C 250.789063 72.542969 256.984375 72.546875 263.183594 72.535156 C 263.332031 72.535156 263.484375 72.535156 263.632813 72.539063 C 265.40625 72.566406 265.902344 73.0625 265.90625 74.832031 C 265.910156 78.664063 265.90625 82.492188 265.90625 86.324219 C 265.90625 86.585938 265.914063 86.851563 265.882813 87.113281 C 265.75 88.210938 265.125 88.914063 264.023438 89.054688 C 263.171875 89.160156 262.300781 89.113281 261.4375 89.175781 C 259.53125 89.316406 257.625 89.457031 255.722656 89.65625 C 254.128906 89.824219 252.695313 90.484375 251.308594 91.25 C 248.859375 92.605469 247.625 94.703125 247.445313 97.457031 C 247.40625 98.09375 247.40625 98.734375 247.40625 99.371094 C 247.402344 107.859375 247.40625 116.347656 247.394531 124.832031 C 247.394531 125.617188 247.339844 126.414063 247.199219 127.183594 C 246.902344 128.820313 245.925781 129.667969 244.285156 129.8125 C 244.023438 129.839844 243.761719 129.847656 243.5 129.847656 C 238.730469 129.851563 233.960938 129.859375 229.191406 129.839844 C 228.523438 129.835938 227.839844 129.746094 227.1875 129.585938 C 225.480469 129.160156 224.5 128.007813 224.214844 126.292969 C 224.089844 125.554688 224.054688 124.796875 224.054688 124.050781 C 224.042969 117.402344 224.050781 110.753906 224.050781 104.105469 "/>
<path style=" stroke:none;fill-rule:evenodd;fill:rgb(43.099976%,74.499512%,26.699829%);fill-opacity:1;" d="M 68.890625 68.386719 C 68.890625 68.390625 68.890625 68.390625 68.890625 68.390625 C 63.707031 68.390625 58.519531 68.378906 53.335938 68.394531 C 51.605469 68.402344 51.050781 68.976563 51.035156 70.710938 C 51.023438 72.515625 51.03125 74.316406 51.035156 76.121094 C 51.035156 78.328125 51.363281 78.664063 53.570313 78.675781 C 55.558594 78.6875 57.550781 78.679688 59.539063 78.679688 C 61.417969 78.683594 61.421875 78.683594 61.421875 80.539063 C 61.421875 89.144531 61.421875 97.746094 61.425781 106.347656 C 61.425781 106.875 61.425781 107.402344 61.496094 107.921875 C 61.667969 109.160156 62.050781 109.578125 63.324219 109.609375 C 66.472656 109.683594 69.628906 109.6875 72.78125 109.703125 C 73.195313 109.707031 73.609375 109.652344 74.015625 109.589844 C 74.929688 109.441406 75.425781 108.992188 75.59375 108.078125 C 75.691406 107.566406 75.699219 107.035156 75.699219 106.511719 C 75.703125 97.757813 75.699219 89.003906 75.703125 80.25 C 75.703125 78.71875 75.742188 78.683594 77.300781 78.679688 C 79.59375 78.675781 81.886719 78.691406 84.175781 78.671875 C 84.699219 78.667969 85.222656 78.582031 85.738281 78.5 C 86.238281 78.417969 86.527344 78.078125 86.621094 77.59375 C 86.6875 77.265625 86.71875 76.925781 86.722656 76.589844 C 86.730469 74.636719 86.738281 72.683594 86.722656 70.730469 C 86.710938 68.96875 86.171875 68.429688 84.445313 68.390625 C 84.144531 68.382813 83.84375 68.386719 83.542969 68.386719 C 78.65625 68.386719 73.773438 68.386719 68.890625 68.386719 Z M 68.953125 52.128906 C 77.101563 52.128906 85.25 52.128906 93.394531 52.128906 C 93.734375 52.128906 94.074219 52.140625 94.410156 52.121094 C 95.136719 52.078125 95.246094 51.976563 95.3125 51.261719 C 95.339844 50.960938 95.328125 50.660156 95.328125 50.359375 C 95.328125 46.867188 95.375 43.375 95.308594 39.886719 C 95.277344 38.128906 95.171875 36.355469 94.875 34.628906 C 93.773438 28.316406 90.726563 23.070313 85.789063 19.007813 C 79.972656 14.21875 73.28125 12.269531 65.765625 13.140625 C 61.890625 13.589844 58.296875 14.824219 55.054688 16.9375 C 47.035156 22.15625 42.921875 29.613281 42.675781 39.164063 C 42.578125 42.953125 42.652344 46.746094 42.648438 50.539063 C 42.648438 52.125 42.65625 52.128906 44.289063 52.128906 C 52.511719 52.128906 60.730469 52.128906 68.953125 52.128906 Z M 109.363281 52.046875 C 110.039063 52.082031 110.519531 52.125 110.996094 52.125 C 116.667969 52.132813 122.34375 52.113281 128.015625 52.144531 C 130.058594 52.15625 132.042969 52.558594 133.890625 53.484375 C 137.390625 55.238281 138.625 58.101563 137.859375 61.800781 C 136.625 67.785156 135.226563 73.738281 133.894531 79.703125 C 131.496094 90.464844 129.101563 101.226563 126.699219 111.988281 C 126.023438 115.027344 125.351563 118.066406 124.652344 121.097656 C 123.9375 124.191406 122.421875 126.738281 119.566406 128.332031 C 117.851563 129.285156 115.96875 129.597656 114.046875 129.6875 C 112.921875 129.742188 111.792969 129.699219 110.664063 129.699219 C 81.890625 129.699219 53.113281 129.703125 24.339844 129.695313 C 21.933594 129.695313 19.636719 129.21875 17.609375 127.832031 C 15.429688 126.339844 14.113281 124.234375 13.511719 121.699219 C 12.582031 117.796875 11.71875 113.878906 10.839844 109.960938 C 7.613281 95.542969 4.386719 81.121094 1.167969 66.703125 C 0.804688 65.089844 0.375 63.488281 0.148438 61.859375 C -0.015625 60.6875 -0.0703125 59.445313 0.125 58.285156 C 0.460938 56.289063 1.707031 54.839844 3.449219 53.828125 C 5.484375 52.648438 7.710938 52.15625 10.027344 52.144531 C 15.664063 52.109375 21.296875 52.128906 26.933594 52.128906 C 28.617188 52.128906 28.621094 52.125 28.621094 50.460938 C 28.621094 47.082031 28.632813 43.699219 28.621094 40.320313 C 28.570313 21.617188 41.511719 5.382813 59.722656 1.039063 C 64.21875 -0.03125 68.773438 -0.222656 73.363281 0.246094 C 81.164063 1.042969 88.109375 3.941406 94.195313 8.828125 C 101.636719 14.800781 106.398438 22.488281 108.464844 31.816406 C 109.066406 34.53125 109.371094 37.289063 109.371094 40.074219 C 109.371094 43.570313 109.367188 47.0625 109.363281 50.554688 C 109.363281 51 109.363281 51.445313 109.363281 52.046875 "/>
<g clip-path="url(#clip2)" clip-rule="nonzero">
<path style=" stroke:none;fill-rule:evenodd;fill:rgb(43.099976%,74.499512%,26.699829%);fill-opacity:1;" d="M 80.417969 148.859375 C 80.265625 140.558594 87.429688 133.050781 96.441406 133.144531 C 104.96875 133.234375 112.1875 140.347656 112.125 149.128906 C 112.058594 157.910156 104.726563 165.132813 95.777344 164.90625 C 87.695313 164.699219 80.183594 157.835938 80.417969 148.859375 "/>
</g>
<g clip-path="url(#clip3)" clip-rule="nonzero">
<path style=" stroke:none;fill-rule:evenodd;fill:rgb(43.099976%,74.499512%,26.699829%);fill-opacity:1;" d="M 57.566406 149.015625 C 57.730469 157.628906 50.445313 164.921875 41.710938 164.90625 C 32.957031 164.898438 25.816406 157.566406 25.855469 148.976563 C 25.894531 140.164063 33.230469 133.105469 41.804688 133.140625 C 50.304688 133.175781 57.707031 140.242188 57.566406 149.015625 "/>
</g>
</g>
</svg>
